<svg xmlns="http://www.w3.org/2000/svg" viewBox="0 0 400 300" width="400" height="300">
  <rect width="400" height="300" fill="#FFF8F0"/>
  <!-- Tanque -->
  <ellipse cx="200" cy="80" rx="70" ry="25" fill="#1C4E80" opacity="0.15"/>
  <rect x="130" y="80" width="140" height="60" fill="#1C4E80" opacity="0.15"/>
  <ellipse cx="200" cy="140" rx="70" ry="25" fill="#1C4E80" opacity="0.2"/>
  <!-- Tubos solares -->
  <g opacity="0.7">
    <rect x="150" y="170" width="10" height="70" rx="5" fill="#E05800" opacity="0.6"/>
    <rect x="165" y="170" width="10" height="70" rx="5" fill="#E05800" opacity="0.6"/>
    <rect x="180" y="170" width="10" height="70" rx="5" fill="#E05800" opacity="0.6"/>
    <rect x="195" y="170" width="10" height="70" rx="5" fill="#E05800" opacity="0.6"/>
    <rect x="210" y="170" width="10" height="70" rx="5" fill="#E05800" opacity="0.6"/>
    <rect x="225" y="170" width="10" height="70" rx="5" fill="#E05800" opacity="0.6"/>
    <rect x="240" y="170" width="10" height="70" rx="5" fill="#E05800" opacity="0.6"/>
    <rect x="255" y="170" width="10" height="70" rx="5" fill="#E05800" opacity="0.6"/>
    <rect x="270" y="170" width="10" height="70" rx="5" fill="#E05800" opacity="0.6"/>
    <rect x="285" y="170" width="10" height="70" rx="5" fill="#E05800" opacity="0.6"/>
  </g>
  <!-- Marco solar -->
  <rect x="140" y="160" width="120" height="90" rx="4" fill="none" stroke="#E05800" stroke-width="1.5" opacity="0.4"/>
  <!-- Texto -->
  <text x="200" y="272" font-family="Arial,sans-serif" font-size="13" font-weight="700" fill="#E05800" text-anchor="middle">Calentador Solar 15 Tubos</text>
  <text x="200" y="288" font-family="Arial,sans-serif" font-size="10" fill="#1C4E80" text-anchor="middle" opacity="0.7">150 litros · Tubos evacuados</text>
</svg>
