<svg xmlns="http://www.w3.org/2000/svg" viewBox="0 0 400 300" width="400" height="300">
  <rect width="400" height="300" fill="#FFF8F0"/>
  <rect x="120" y="50" width="160" height="100" rx="10" fill="#1C4E80" opacity="0.15" stroke="#1C4E80" stroke-width="2"/>
  <text x="200" y="105" font-family="Arial,sans-serif" font-size="11" fill="#1C4E80" text-anchor="middle" font-weight="600">Presurizado</text>
  <g opacity="0.6">
    <rect x="145" y="165" width="7" height="60" rx="3" fill="#E05800" opacity="0.65"/>
    <rect x="155" y="165" width="7" height="60" rx="3" fill="#E05800" opacity="0.65"/>
    <rect x="165" y="165" width="7" height="60" rx="3" fill="#E05800" opacity="0.65"/>
    <rect x="175" y="165" width="7" height="60" rx="3" fill="#E05800" opacity="0.65"/>
    <rect x="185" y="165" width="7" height="60" rx="3" fill="#E05800" opacity="0.65"/>
    <rect x="195" y="165" width="7" height="60" rx="3" fill="#E05800" opacity="0.65"/>
    <rect x="205" y="165" width="7" height="60" rx="3" fill="#E05800" opacity="0.65"/>
    <rect x="215" y="165" width="7" height="60" rx="3" fill="#E05800" opacity="0.65"/>
    <rect x="225" y="165" width="7" height="60" rx="3" fill="#E05800" opacity="0.65"/>
    <rect x="235" y="165" width="7" height="60" rx="3" fill="#E05800" opacity="0.65"/>
    <rect x="245" y="165" width="7" height="60" rx="3" fill="#E05800" opacity="0.65"/>
    <rect x="255" y="165" width="7" height="60" rx="3" fill="#E05800" opacity="0.65"/>
  </g>
  <text x="200" y="250" font-family="Arial,sans-serif" font-size="13" font-weight="700" fill="#E05800" text-anchor="middle">Sistema Presurizado 20 T</text>
  <text x="200" y="266" font-family="Arial,sans-serif" font-size="10" fill="#1C4E80" text-anchor="middle" opacity="0.7">200 litros · Alta presión</text>
</svg>
