<svg xmlns="http://www.w3.org/2000/svg" viewBox="0 0 64 64" width="64" height="64">
  <defs>
    <radialGradient id="solar" cx="50%" cy="50%" r="50%">
      <stop offset="0%" stop-color="#fcd34d"/>
      <stop offset="100%" stop-color="#f97316"/>
    </radialGradient>
  </defs>
  <rect width="64" height="64" rx="14" fill="url(#solar)"/>
  <!-- Sol -->
  <circle cx="32" cy="30" r="11" fill="#fff" opacity="0.95"/>
  <!-- Rayos -->
  <line x1="32" y1="10" x2="32" y2="15" stroke="#fff" stroke-width="3" stroke-linecap="round"/>
  <line x1="32" y1="45" x2="32" y2="50" stroke="#fff" stroke-width="3" stroke-linecap="round"/>
  <line x1="12" y1="30" x2="17" y2="30" stroke="#fff" stroke-width="3" stroke-linecap="round"/>
  <line x1="47" y1="30" x2="52" y2="30" stroke="#fff" stroke-width="3" stroke-linecap="round"/>
  <line x1="17" y1="15" x2="21" y2="19" stroke="#fff" stroke-width="3" stroke-linecap="round"/>
  <line x1="43" y1="41" x2="47" y2="45" stroke="#fff" stroke-width="3" stroke-linecap="round"/>
  <line x1="47" y1="15" x2="43" y2="19" stroke="#fff" stroke-width="3" stroke-linecap="round"/>
  <line x1="21" y1="41" x2="17" y2="45" stroke="#fff" stroke-width="3" stroke-linecap="round"/>
  <!-- Gota de agua abajo -->
  <path d="M32 56 C28 50 24 47 24 44 a8 8 0 0 1 16 0 C40 47 36 50 32 56z" fill="#fff" opacity="0.9"/>
</svg>
